<svg width="25" height="28" viewBox="0 0 25 28" fill="none" xmlns="http://www.w3.org/2000/svg">
<path d="M13.6377 27.0874C15.3695 27.0874 17.1411 26.6943 18.9526 25.9082C20.7756 25.1107 22.2168 23.9429 23.2764 22.4048C23.2764 22.2567 23.208 22.1313 23.0713 22.0288C22.946 21.9263 22.8035 21.875 22.644 21.875C20.9351 23.9486 18.4229 24.9854 15.1074 24.9854C11.6097 24.9854 8.96647 23.9315 7.17773 21.8237C5.40039 19.7046 4.51172 17.0728 4.51172 13.9282C4.51172 12.5041 4.66553 11.1312 4.97314 9.80957C5.29215 8.47656 5.78206 7.20622 6.44287 5.99854C7.11507 4.77946 8.06641 3.79395 9.29688 3.04199C10.5387 2.29004 11.9857 1.91406 13.6377 1.91406C14.7656 1.91406 15.8081 2.09066 16.7651 2.44385C17.7222 2.79704 18.5083 3.21289 19.1235 3.69141C19.7388 4.16992 20.3369 4.81364 20.918 5.62256C21.5104 6.42008 21.9548 7.11507 22.251 7.70752C22.5586 8.28857 22.9232 9.02913 23.3447 9.9292C23.6865 9.88363 23.8973 9.7583 23.9771 9.55322C23.134 6.16943 21.8579 3.85091 20.1489 2.59766C18.4513 1.33301 16.2809 0.700684 13.6377 0.700684C12.5667 0.700684 11.473 0.831706 10.3564 1.09375C9.23991 1.3444 8.08919 1.80013 6.9043 2.46094C5.73079 3.11035 4.69401 3.91927 3.79395 4.8877C2.89388 5.84473 2.15332 7.10938 1.57227 8.68164C0.991211 10.2425 0.700684 11.9914 0.700684 13.9282C0.700684 15.8651 0.991211 17.6139 1.57227 19.1748C2.15332 20.7357 2.89388 21.9946 3.79395 22.9517C4.69401 23.9087 5.73079 24.7119 6.9043 25.3613C8.08919 25.9993 9.23991 26.4437 10.3564 26.6943C11.473 26.9564 12.5667 27.0874 13.6377 27.0874ZM22.9175 10.6982C22.4276 9.60449 21.9775 8.70443 21.5674 7.99805C21.1572 7.28027 20.6104 6.48275 19.9268 5.60547C19.2432 4.7168 18.4285 4.02751 17.4829 3.5376C16.5373 3.04769 15.4777 2.75146 14.3042 2.64893C13.0054 2.75146 11.8717 3.16732 10.9033 3.89648C9.9349 4.61426 9.18294 5.53711 8.64746 6.66504C8.12337 7.79297 7.736 8.96647 7.48535 10.1855C7.24609 11.3932 7.12646 12.6408 7.12646 13.9282C7.12646 16.7993 7.84993 19.209 9.29688 21.1572C10.7438 23.1055 12.9028 24.1479 15.7739 24.2847C18.5539 24.1479 20.7357 23.1112 22.3193 21.1743C22.7637 21.1743 23.151 21.3224 23.4814 21.6187C23.8118 21.9035 23.9771 22.2453 23.9771 22.644C22.8263 24.3188 21.2712 25.5949 19.3115 26.4722C17.3519 27.3494 15.4606 27.7881 13.6377 27.7881C12.4984 27.7881 11.342 27.6514 10.1685 27.3779C9.00635 27.1159 7.79867 26.6488 6.54541 25.9766C5.30355 25.293 4.2041 24.4442 3.24707 23.4302C2.29004 22.4162 1.5096 21.0889 0.905762 19.4482C0.301921 17.7962 0 15.9562 0 13.9282C0 11.8091 0.313314 9.91781 0.939941 8.25439C1.56657 6.57959 2.36979 5.24089 3.34961 4.23828C4.32943 3.23568 5.47445 2.40397 6.78467 1.74316C8.09489 1.07096 9.36523 0.615234 10.5957 0.375977C11.8376 0.125326 13.0851 0 14.3384 0C16.0474 0 17.9045 0.227865 19.9097 0.683594C21.9149 1.13932 23.3504 1.42415 24.2163 1.53809C23.8403 3.00781 23.6922 4.30094 23.772 5.41748C23.8517 6.52262 24.1764 7.87842 24.7461 9.48486C24.4157 10.1571 23.8062 10.5615 22.9175 10.6982Z" fill="black"/>
</svg>
